PathFileType	4	(X/Y/Z)	 2.2Hz3min.trc
DataRate	CameraRate	NumFrames	NumMarkers	Units	OrigDataRate	OrigDataStartFrame	OrigNumFrames
200	200	9	43	m	200	374	997
Frame#	Time	C7			LSH			RSH			MAN			RASI			LASI			HIPR			HIPL			RPSI			LPSI			COX			RTHI1			RTHI2			RTHI3			RTHI4			RLKN			RMKN			RSHA1			RSHA2			RSHA3			RSHA4			RLMAL			RMMAL			RHEEL			RMET5			RMET1			RTOE			LTHI1			LTHI2			LTHI3			LTHI4			LLKN			LMKN			LSHA1			LSHA2			LSHA3			LSHA4			LLMAL			LMMAL			LHEEL			LMET5			LMET1			LTOE			
		X1	Y1	Z1	X2	Y2	Z2	X3	Y3	Z3	X4	Y4	Z4	X5	Y5	Z5	X6	Y6	Z6	X7	Y7	Z7	X8	Y8	Z8	X9	Y9	Z9	X10	Y10	Z10	X11	Y11	Z11	X12	Y12	Z12	X13	Y13	Z13	X14	Y14	Z14	X15	Y15	Z15	X16	Y16	Z16	X17	Y17	Z17	X18	Y18	Z18	X19	Y19	Z19	X20	Y20	Z20	X21	Y21	Z21	X22	Y22	Z22	X23	Y23	Z23	X24	Y24	Z24	X25	Y25	Z25	X26	Y26	Z26	X27	Y27	Z27	X28	Y28	Z28	X29	Y29	Z29	X30	Y30	Z30	X31	Y31	Z31	X32	Y32	Z32	X33	Y33	Z33	X34	Y34	Z34	X35	Y35	Z35	X36	Y36	Z36	X37	Y37	Z37	X38	Y38	Z38	X39	Y39	Z39	X40	Y40	Z40	X41	Y41	Z41	X42	Y42	Z42	X43	Y43	Z43	
374	1.8700	-0.241458	1.422460	-0.548163	-0.179762	1.384653	-0.758454	-0.141992	1.363462	-0.363469	-0.107215	1.330258	-0.565441	-0.109802	0.897045	-0.434523	-0.131182	0.899262	-0.704870	-0.212562	0.943646	-0.391575	-0.228312	0.937346	-0.724894	-0.304700	0.941443	-0.503878	-0.312421	0.929647	-0.599106	-0.312044	0.934430	-0.550113	-0.120425	0.647859	-0.353219	-0.095452	0.592963	-0.354301	-0.035957	0.616053	-0.365664	-0.052761	0.675575	-0.365279	-0.041499	0.416402	-0.365685	-0.043476	0.385802	-0.474383	-0.174890	0.280599	-0.332953	-0.200111	0.246891	-0.339520	-0.127969	0.252622	-0.335277	-0.147314	0.216697	-0.336886	-0.275064	0.091581	-0.342984	-0.245437	0.079976	-0.426810	-0.333157	0.074956	-0.391959	-0.178622	0.035268	-0.297760	-0.127239	0.045589	-0.376724	-0.102666	0.037641	-0.376512	-0.169891	0.645900	-0.769004	-0.145514	0.589969	-0.775856	-0.084591	0.610811	-0.785324	-0.101999	0.668164	-0.780610	-0.090555	0.408896	-0.779980	-0.068202	0.384055	-0.671314	-0.225410	0.269142	-0.778619	-0.247907	0.237243	-0.768216	-0.195888	0.204618	-0.773972	-0.178554	0.243508	-0.785911	-0.317419	0.086806	-0.752148	-0.282044	0.091018	-0.671297	-0.371382	0.079393	-0.693394	-0.230408	0.036352	-0.806839	-0.170137	0.045762	-0.736483	-0.144131	0.038525	-0.748110	
375	1.8750	-0.241513	1.422254	-0.548363	-0.179759	1.384458	-0.758714	-0.142183	1.363071	-0.363606	-0.107278	1.329936	-0.565620	-0.109877	0.896772	-0.434357	-0.131006	0.899346	-0.704598	-0.212658	0.943960	-0.391672	-0.228058	0.938090	-0.724849	-0.304702	0.941242	-0.504057	-0.312252	0.929503	-0.599328	-0.312003	0.934225	-0.550337	-0.120339	0.647454	-0.353316	-0.095320	0.592583	-0.354383	-0.035820	0.615750	-0.365702	-0.052715	0.675269	-0.365308	-0.041002	0.416105	-0.365756	-0.043455	0.385685	-0.474504	-0.174456	0.280486	-0.332724	-0.199726	0.246762	-0.339298	-0.127568	0.252475	-0.335071	-0.146947	0.216447	-0.336904	-0.274884	0.091521	-0.342723	-0.245515	0.080009	-0.426615	-0.333196	0.075108	-0.391678	-0.178557	0.035225	-0.297649	-0.127265	0.045583	-0.376666	-0.102669	0.037647	-0.376495	-0.170662	0.645615	-0.768866	-0.146420	0.589663	-0.775884	-0.085544	0.610438	-0.785910	-0.102847	0.667795	-0.781111	-0.091225	0.408632	-0.780532	-0.068644	0.383701	-0.671927	-0.225614	0.268756	-0.779132	-0.248073	0.236849	-0.768721	-0.196003	0.204285	-0.774360	-0.178707	0.243175	-0.786355	-0.317541	0.086489	-0.752400	-0.282257	0.090860	-0.671516	-0.371565	0.079185	-0.693698	-0.230457	0.036279	-0.807049	-0.170252	0.045817	-0.736591	-0.144216	0.038534	-0.748205	
376	1.8800	-0.241665	1.422489	-0.548581	-0.179792	1.384813	-0.758966	-0.142414	1.363290	-0.363759	-0.107369	1.330160	-0.565806	-0.109897	0.897196	-0.434472	-0.130714	0.900295	-0.703901	-0.212382	0.944977	-0.391882	-0.227263	0.939635	-0.724768	-0.304578	0.941479	-0.504236	-0.312018	0.929949	-0.599810	-0.311835	0.934467	-0.550575	-0.120232	0.647469	-0.353407	-0.095222	0.592603	-0.354450	-0.035702	0.615774	-0.365794	-0.052638	0.675300	-0.365407	-0.040721	0.416116	-0.365802	-0.043663	0.385882	-0.474610	-0.174189	0.280620	-0.332493	-0.199494	0.246842	-0.339094	-0.127345	0.252565	-0.334907	-0.146729	0.216456	-0.336918	-0.274687	0.091541	-0.342448	-0.245567	0.080154	-0.426440	-0.333184	0.075344	-0.391449	-0.178517	0.035163	-0.297570	-0.127261	0.045584	-0.376623	-0.102662	0.037650	-0.376482	-0.171329	0.645826	-0.768791	-0.147251	0.589834	-0.775918	-0.086388	0.610486	-0.786375	-0.103547	0.667874	-0.781512	-0.091961	0.408709	-0.780981	-0.069470	0.383745	-0.672342	-0.225863	0.268609	-0.779616	-0.248269	0.236681	-0.769203	-0.196121	0.204207	-0.774689	-0.178882	0.243110	-0.786728	-0.317632	0.086342	-0.752676	-0.282435	0.090893	-0.671764	-0.371706	0.079163	-0.694025	-0.230492	0.036209	-0.807226	-0.170341	0.045858	-0.736685	-0.144291	0.038540	-0.748278	
377	1.8850	-0.241901	1.423176	-0.548811	-0.179858	1.385693	-0.759201	-0.142693	1.364081	-0.363921	-0.107490	1.330928	-0.565992	-0.109876	0.898263	-0.434817	-0.130313	0.901975	-0.702907	-0.211834	0.946518	-0.392170	-0.226062	0.941697	-0.724673	-0.304328	0.942149	-0.504406	-0.311748	0.930966	-0.600299	-0.311544	0.935158	-0.550813	-0.120129	0.647922	-0.353493	-0.095183	0.593036	-0.354506	-0.035628	0.616145	-0.365931	-0.052544	0.675684	-0.365568	-0.040734	0.416483	-0.365834	-0.044070	0.386385	-0.474684	-0.174116	0.281013	-0.332296	-0.199446	0.247148	-0.338942	-0.127316	0.252910	-0.334796	-0.146638	0.216767	-0.336898	-0.274500	0.091665	-0.342206	-0.245574	0.080410	-0.426311	-0.333117	0.075660	-0.391301	-0.178504	0.035100	-0.297546	-0.127228	0.045584	-0.376593	-0.102647	0.037654	-0.376479	-0.171856	0.646546	-0.768797	-0.147958	0.590488	-0.775989	-0.087073	0.610979	-0.786718	-0.104063	0.668408	-0.781809	-0.092734	0.409149	-0.781310	-0.070573	0.384214	-0.672575	-0.226172	0.268734	-0.780007	-0.248510	0.236773	-0.769590	-0.196272	0.204417	-0.774937	-0.179106	0.243347	-0.787005	-0.317682	0.086383	-0.752916	-0.282544	0.091114	-0.671992	-0.371770	0.079344	-0.694292	-0.230513	0.036155	-0.807342	-0.170389	0.045878	-0.736759	-0.144339	0.038545	-0.748330	
378	1.8900	-0.242217	1.424319	-0.549046	-0.179955	1.387091	-0.759418	-0.143014	1.365444	-0.364085	-0.107643	1.332228	-0.566173	-0.109796	0.899906	-0.435326	-0.129807	0.904222	-0.701758	-0.211099	0.948425	-0.392500	-0.224583	0.944049	-0.724622	-0.303962	0.943251	-0.504567	-0.311430	0.932327	-0.600851	-0.311139	0.936283	-0.551043	-0.120049	0.648821	-0.353575	-0.095214	0.593888	-0.354551	-0.035620	0.616870	-0.366102	-0.052452	0.676430	-0.365780	-0.041040	0.417184	-0.365874	-0.044657	0.387189	-0.474724	-0.174286	0.281612	-0.332180	-0.199602	0.247685	-0.338862	-0.127524	0.253549	-0.334748	-0.146696	0.217359	-0.336838	-0.274363	0.091929	-0.342049	-0.245526	0.080782	-0.426232	-0.332993	0.076066	-0.391254	-0.178520	0.035050	-0.297593	-0.127159	0.045581	-0.376578	-0.102620	0.037668	-0.376484	-0.172219	0.647749	-0.768888	-0.148505	0.591615	-0.776109	-0.087572	0.611912	-0.786936	-0.104372	0.669398	-0.782007	-0.093560	0.409968	-0.781507	-0.071844	0.385080	-0.672653	-0.226567	0.269156	-0.780252	-0.248820	0.237141	-0.769824	-0.196482	0.204932	-0.775089	-0.179417	0.243900	-0.787180	-0.317685	0.086615	-0.753088	-0.282566	0.091538	-0.672186	-0.371741	0.079719	-0.694462	-0.230533	0.036115	-0.807378	-0.170391	0.045882	-0.736819	-0.144358	0.038551	-0.748360	
379	1.8950	-0.242609	1.425911	-0.549277	-0.180080	1.388983	-0.759614	-0.143384	1.367321	-0.364246	-0.107833	1.334044	-0.566343	-0.109640	0.902046	-0.435940	-0.129193	0.906868	-0.700605	-0.210237	0.950607	-0.392841	-0.222939	0.946548	-0.724635	-0.303491	0.944773	-0.504715	-0.310841	0.934062	-0.601111	-0.310637	0.937837	-0.551258	-0.120008	0.650161	-0.353661	-0.095343	0.595158	-0.354595	-0.035699	0.617943	-0.366304	-0.052376	0.677531	-0.366034	-0.041712	0.418266	-0.365891	-0.045418	0.388282	-0.474722	-0.174714	0.282448	-0.332145	-0.199975	0.248462	-0.338864	-0.127950	0.254464	-0.334720	-0.146972	0.218253	-0.336787	-0.274305	0.092364	-0.342003	-0.245423	0.081295	-0.426194	-0.332801	0.076581	-0.391313	-0.178565	0.035011	-0.297703	-0.127069	0.045576	-0.376574	-0.102587	0.037689	-0.376499	-0.172407	0.649405	-0.769045	-0.148889	0.593181	-0.776270	-0.087879	0.613263	-0.787039	-0.104473	0.670816	-0.782105	-0.094458	0.411159	-0.781565	-0.073194	0.386346	-0.672592	-0.227074	0.269880	-0.780330	-0.249220	0.237806	-0.769891	-0.196779	0.205767	-0.775150	-0.179834	0.244794	-0.787256	-0.317643	0.087041	-0.753193	-0.282494	0.092149	-0.672350	-0.371624	0.080287	-0.694532	-0.230549	0.036097	-0.807340	-0.170351	0.045872	-0.736867	-0.144347	0.038554	-0.748369	
380	1.9000	-0.243063	1.427931	-0.549497	-0.180245	1.391349	-0.759787	-0.143807	1.369696	-0.364405	-0.108062	1.336356	-0.566500	-0.109398	0.904594	-0.436589	-0.128470	0.909790	-0.699555	-0.209294	0.953036	-0.393174	-0.221208	0.949160	-0.724752	-0.302917	0.946714	-0.504844	-0.310214	0.936281	-0.601400	-0.310044	0.939804	-0.551459	-0.120022	0.651921	-0.353754	-0.095582	0.596822	-0.354644	-0.035874	0.619347	-0.366525	-0.052329	0.678973	-0.366318	-0.042744	0.419684	-0.365880	-0.046352	0.389655	-0.474687	-0.175391	0.283513	-0.332192	-0.200551	0.249462	-0.338931	-0.128557	0.255639	-0.334786	-0.147449	0.219421	-0.336749	-0.274322	0.092980	-0.342055	-0.245272	0.081970	-0.426186	-0.332553	0.077219	-0.391439	-0.178633	0.034981	-0.297865	-0.126975	0.045563	-0.376588	-0.102556	0.037703	-0.376517	-0.172439	0.651484	-0.769276	-0.149130	0.595164	-0.776453	-0.088011	0.615005	-0.787025	-0.104381	0.672629	-0.782110	-0.095446	0.412717	-0.781500	-0.074580	0.388001	-0.672417	-0.227705	0.270930	-0.780255	-0.249724	0.238759	-0.769808	-0.197171	0.206915	-0.775137	-0.180385	0.246016	-0.787246	-0.317564	0.087657	-0.753253	-0.282329	0.092920	-0.672479	-0.371430	0.081031	-0.694546	-0.230565	0.036087	-0.807231	-0.170262	0.045849	-0.736893	-0.144311	0.038555	-0.748360	
381	1.9050	-0.243577	1.430355	-0.549701	-0.180470	1.394155	-0.759936	-0.144274	1.372538	-0.364555	-0.108331	1.339133	-0.566642	-0.109050	0.907476	-0.437227	-0.127647	0.912917	-0.698678	-0.208287	0.955743	-0.393491	-0.219430	0.951954	-0.724965	-0.302250	0.949061	-0.504960	-0.309570	0.938948	-0.601744	-0.309364	0.942164	-0.551653	-0.120103	0.654067	-0.353858	-0.095928	0.598854	-0.354704	-0.036145	0.621064	-0.366760	-0.052319	0.680744	-0.366624	-0.044104	0.421434	-0.365856	-0.047476	0.391302	-0.474626	-0.176284	0.284795	-0.332298	-0.201291	0.250664	-0.339024	-0.129352	0.257099	-0.334841	-0.148062	0.220842	-0.336712	-0.274379	0.093753	-0.342150	-0.245097	0.082797	-0.426184	-0.332265	0.078009	-0.391590	-0.178721	0.034967	-0.298075	-0.126881	0.045538	-0.376605	-0.102531	0.037715	-0.376544	-0.172350	0.653961	-0.769563	-0.149259	0.597531	-0.776648	-0.088000	0.617107	-0.786903	-0.104130	0.674799	-0.782027	-0.096554	0.414621	-0.781324	-0.075988	0.390031	-0.672148	-0.228472	0.272266	-0.780063	-0.250343	0.239983	-0.769607	-0.197665	0.208348	-0.775084	-0.181072	0.247547	-0.787181	-0.317459	0.088453	-0.753302	-0.282099	0.093864	-0.672608	-0.371170	0.081967	-0.694553	-0.230578	0.036091	-0.807076	-0.170145	0.045818	-0.736905	-0.144259	0.038555	-0.748333	
382	1.9100	-0.244153	1.433153	-0.549884	-0.180762	1.397384	-0.760062	-0.144785	1.375822	-0.364696	-0.108637	1.342345	-0.566768	-0.108575	0.910648	-0.437822	-0.126724	0.916228	-0.698003	-0.207212	0.958783	-0.393788	-0.217638	0.955029	-0.725273	-0.301497	0.951813	-0.505066	-0.308669	0.941825	-0.601868	-0.308610	0.944896	-0.551848	-0.120245	0.656571	-0.353973	-0.096377	0.601226	-0.354775	-0.036524	0.623074	-0.367008	-0.052359	0.682823	-0.366944	-0.045701	0.423456	-0.365804	-0.048794	0.393223	-0.474546	-0.177359	0.286284	-0.332438	-0.202165	0.252062	-0.339126	-0.130276	0.258808	-0.334895	-0.148843	0.222487	-0.336703	-0.274463	0.094688	-0.342259	-0.244898	0.083790	-0.426163	-0.331948	0.078974	-0.391737	-0.178806	0.034969	-0.298311	-0.126783	0.045509	-0.376628	-0.102512	0.037718	-0.376574	-0.172177	0.656797	-0.769889	-0.149316	0.600246	-0.776837	-0.087893	0.619526	-0.786683	-0.103765	0.677293	-0.781864	-0.097806	0.416843	-0.781054	-0.077448	0.392377	-0.671807	-0.229364	0.273851	-0.779790	-0.251070	0.241444	-0.769338	-0.198249	0.210042	-0.775014	-0.181880	0.249352	-0.787089	-0.317339	0.089411	-0.753379	-0.281824	0.094996	-0.672773	-0.370873	0.083057	-0.694605	-0.230584	0.036108	-0.806896	-0.170016	0.045781	-0.736910	-0.144204	0.038548	-0.748293	
